# xmcd
#
# Track frame offsets:
#	150
#	14957
#	32147
#	51751
#	63583
#	75851
#	87942
#	99689
#	109901
#	127477
#	142426
#	153047
#	168963
#	183228
#	196404
#	210657
#	220591
#	233694
#	246599
#	260032
#
# Disc length: 3615 seconds
#
# Revision: 1
# Processed by: cddbd v1.5.2PL0 Copyright (c) Steve Scherf et al.
# Submitted via: audiograbber 1.83.01
#
DISCID=2a0e1d14
DTITLE=Various Artist - 100 Hits - Classic Country [Box-Set] [CD 3)
DYEAR=2012
DGENRE=Country
TTITLE0=Glen Campbell - Rhinestone Cowboy
TTITLE1=Jim Croce - Operator (That's Not The Way It Feels)
TTITLE2=Kenny Rogers - Coward Of The County
TTITLE3=Tennessee Ernie Ford - Sixteen Tons
TTITLE4=Hank Thompson - The Wild Side Of Life
TTITLE5=The Louvin Brothers - Cash On The Barrel Head
TTITLE6=Roy Rogers - Lovenworth
TTITLE7=Rose Maddox - Move It On Over
TTITLE8=Wild Rose - Hillbilly Twist
TTITLE9=Asleep At The Wheel - She Came To Dance
TTITLE10=Mel McDaniel - Louisiana Saturday Night
TTITLE11=Steve Wariner - Road Trippin'
TTITLE12=Chris LeDoux - Even Cowboys Like A Little Rock And Roll
TTITLE13=Suzy Bogguss - I Want To Be A Cowboy's Sweetheart
TTITLE14=George Ducas - In No Time At All
TTITLE15=Jean Shepard - Second Fiddle (To An Old Guitar)
TTITLE16=Tex Williams - Smoke! Smoke! Smoke! (That Cigarette)
TTITLE17=Al Dexter - Pistol Packin' Mama
TTITLE18=Merle Travis - So Round, So Firm, So Fully Packed
TTITLE19=Tommy Collins - You Better Not Do That
EXTD=
EXTT0=
EXTT1=
EXTT2=
EXTT3=
EXTT4=
EXTT5=
EXTT6=
EXTT7=
EXTT8=
EXTT9=
EXTT10=
EXTT11=
EXTT12=
EXTT13=
EXTT14=
EXTT15=
EXTT16=
EXTT17=
EXTT18=
EXTT19=
PLAYORDER=
